<svg width="50" height="48" xmlns="http://www.w3.org/2000/svg" xmlns:xlink="http://www.w3.org/1999/xlink" xml:space="preserve" overflow="hidden"><g transform="translate(-1086 -106)"><g><g><g><g><path d="M8.5 0 39.5 0C44.2 0 48 3.8 48 8.5L48 38.3C48 43 44.2 46.8 39.5 46.8L8.5 46.8C3.8 46.8 0 43 0 38.3L0 8.5C0 3.8 3.8 0 8.5 0Z" fill="#EB1000" fill-rule="nonzero" fill-opacity="1" transform="matrix(1 0 0 1.00427 1087 107)"/><path d="M37.32 35.2 31.62 35.2C31.12 35.2 30.66 34.92 30.46 34.44L24.28 19.96C24.24 19.82 24.08 19.74 23.94 19.78 23.86 19.8 23.78 19.88 23.76 19.96L19.9 29.14C19.82 29.3 19.9 29.5 20.08 29.56 20.12 29.58 20.16 29.58 20.2 29.58L24.44 29.58C24.7 29.58 24.94 29.74 25.04 29.98L26.9 34.12C27.06 34.5 26.88 34.96 26.5 35.12 26.4 35.16 26.3 35.18 26.2 35.18L10.74 35.18C10.36 35.18 10.04 34.86 10.04 34.48 10.04 34.38 10.06 34.3 10.1 34.2L19.92 10.82C20.12 10.32 20.62 9.98 21.16 10L26.82 10C27.36 10 27.86 10.32 28.06 10.82L37.96 34.2C38.12 34.56 37.94 34.98 37.6 35.12 37.5 35.16 37.42 35.18 37.32 35.2Z" fill="#FFFFFF" fill-rule="nonzero" fill-opacity="1" transform="matrix(1 0 0 1.00427 1087 107)"/></g></g></g></g></g></svg>