<svg width="28" height="27" viewBox="0 0 48 47" xmlns="http://www.w3.org/2000/svg">
  <rect width="48" height="46.8" rx="8.5" fill="#EB1000"/>
  <path d="M37.32 35.2H31.62c-.5 0-.96-.28-1.16-.76L24.28 19.96c-.04-.14-.2-.22-.34-.18-.08.02-.16.1-.18.18L19.9 29.14c-.08.16 0 .36.18.42.04.02.08.02.12.02h4.24c.26 0 .5.16.6.4l1.86 4.14c.16.38-.02.84-.4 1-.1.04-.2.06-.3.06H10.74c-.38 0-.7-.32-.7-.7 0-.1.02-.18.06-.28L19.92 10.82c.2-.5.7-.84 1.24-.82h5.66c.54 0 1.04.32 1.24.82l9.9 23.38c.16.36-.02.78-.36.92-.1.04-.18.06-.28.08Z" fill="#fff"/>
</svg>
